<svg xmlns="http://www.w3.org/2000/svg" width="512" height="512"><g fill-rule="evenodd"><path d="M376.207 1.073c-.079.216-2.677.452-5.775.523-3.098.072-5.879.312-6.181.535-.302.222-1.742.446-3.2.498-1.458.051-2.651.287-2.651.524 0 .237-.244.431-.542.431-.298 0-.369-.288-.158-.64.301-.502.221-.508-.371-.029-.415.336-1.829.666-3.142.734-1.313.068-2.271.311-2.129.541.142.23-1.003.418-2.545.418s-2.885.243-2.984.54c-.099.297-1.016.585-2.039.64-1.022.055-1.753.273-1.624.484.201.329-2.835.65-4.088.432-.232-.04-.276.163-.098.451.198.32-.374.525-1.468.525-.985 0-1.934.23-2.108.512-.174.282-.879.512-1.566.512-.688 0-1.25.23-1.25.512 0 .282-.691.512-1.536.512-.845 0-1.536.23-1.536.512 0 .282-.691.512-1.536.512-.845 0-1.536.23-1.536.512 0 .282-.922.512-2.048.512s-2.048.23-2.048.512c0 .282-.442.512-.981.512-.54 0-1.058.228-1.152.508-.094.279-.788.558-1.542.62-.754.062-1.259.295-1.122.517.137.221-.103.403-.533.403-.431 0-1.603.461-2.606 1.024s-2.392 1.024-3.088 1.024c-.695 0-1.264.23-1.264.512 0 .282-.288.517-.64.523-.352.007-1.216.462-1.92 1.013-.704.551-1.9 1.006-2.658 1.013-.758.006-1.52.241-1.694.523-.174.282-.739.512-1.255.512-.517 0-1.071.342-1.231.759-.166.432-.631.63-1.079.458-.433-.167-.787-.048-.787.264s-.359.567-.798.567c-.473 0-.65.241-.433.591.216.35.141.453-.183.253-.301-.187-1.234.239-2.073.945-.838.705-1.802 1.283-2.14 1.283-.338 0-1.282.475-2.097 1.055-.815.581-1.929 1.09-2.476 1.131-.546.041-.88.257-.742.48.138.223-.188.406-.724.406-.537 0-1.392.461-1.902 1.024s-1.352 1.024-1.871 1.024c-.52 0-.945.23-.945.512 0 .282-.31.512-.689.512-.378 0-1.105.461-1.615 1.024s-1.297 1.024-1.75 1.024c-.453 0-1.252.572-1.777 1.27-.525.699-1.168 1.139-1.429.977-.261-.161-.892.189-1.403.778s-1.201 1.071-1.532 1.071c-.332 0-1.184.58-1.893 1.29-.71.709-1.563 1.133-1.897.942-.334-.192-.438-.161-.231.067.421.466-1.053 1.756-2.036 1.781-.349.009-1.296.707-2.103 1.552-.807.845-1.729 1.536-2.048 1.536-.319 0-1.241.691-2.048 1.536-.807.845-1.731 1.536-2.054 1.536-.322 0-1.371.833-2.331 1.85-1.1 1.167-1.98 1.705-2.382 1.457-.41-.254-.507-.183-.271.198.201.325.153.591-.107.591s-1.069.596-1.798 1.325c-.778.779-1.579 1.169-1.941.945-.357-.22-.482-.164-.298.134.175.282-.25.818-.944 1.189-.695.372-1.263.868-1.263 1.102 0 .234-.41.425-.911.425-.501 0-1.243.461-1.649 1.024-.406.563-1.036 1.024-1.4 1.024-.364 0-1.37.749-2.235 1.664-.865.915-1.427 1.318-1.249.896.178-.422-.061-.25-.531.384-.47.634-1.171 1.152-1.559 1.152-.389 0-.706.23-.706.512 0 .282-.41.512-.911.512-.501 0-1.243.461-1.649 1.024-.406.563-1.053 1.024-1.439 1.024-.385 0-1.159.518-1.718 1.152-.559.634-.847.806-.639.384.207-.422-.293-.192-1.112.512-.819.704-1.566 1.453-1.661 1.664-.095.211-.614.384-1.154.384-.539 0-.981.23-.981.512 0 .282-.461.512-1.024.512s-1.024.23-1.024.512c0 .282-.353.512-.785.512-.432 0-1.461.691-2.287 1.536-1.334 1.365-2.406 1.817-3.75 1.584-.232-.04-.276.163-.098.451.184.298-.162.525-.798.525-.617 0-1.495.403-1.95.896-.989 1.07-4.98 3.2-5.996 3.2-.396 0-.72.23-.72.512 0 .282-.461.512-1.024.512s-1.024.23-1.024.512c0 .282-.461.512-1.024.512s-1.024.23-1.024.512c0 .282-.355.512-.789.512-.435 0-1.284.461-1.889 1.024-.604.563-1.503 1.024-1.996 1.024-.494 0-1.04.23-1.214.512-.174.282-.994.512-1.822.512-.828 0-1.506.188-1.506.417 0 .725-4.129 2.655-5.68 2.655-.819 0-1.488.23-1.488.512 0 .282-.442.512-.981.512-.54 0-1.066.252-1.168.559-.103.308-.791.596-1.53.64-.738.045-1.236.254-1.106.465.131.211-.583.384-1.585.384s-1.822.23-1.822.512c0 .282-.346.512-.768.512-.422 0-.768.23-.768.512 0 .282-.244.512-.542.512-.298 0-.38-.288-.181-.64.289-.512.223-.512-.328 0-.38.352-1.162.647-1.739.656-.578.009-1.476.339-1.996.733-.52.394-1.263.595-1.651.446-.387-.149-1.052.077-1.477.502-.425.425-1.236.65-1.805.502-.581-.152-1.033-.02-1.033.301 0 .326-.881.572-2.048.572-1.126 0-2.048.23-2.048.512 0 .282-.53.512-1.178.512-.647 0-1.487.288-1.867.64-.551.512-.617.512-.328 0 .199-.352.117-.64-.181-.64s-.542.23-.542.512c0 .282-.935.512-2.078.512-1.255 0-1.953.203-1.762.512.279.452-3.71.824-5.798.541-.373-.05-.959.142-1.302.427-.344.285-1.918.585-3.499.668-1.581.082-2.767.324-2.636.537.221.357-6.014.593-11.692.442-1.319-.035-2.543.168-2.718.452-.483.782-9.339.668-9.605-.123-.164-.488-.441-.458-1.165.128-.522.422-.8.517-.616.211.23-.385-1.284-.586-4.894-.649-2.878-.051-5.304-.318-5.398-.595-.094-.277-1.764-.503-3.712-.503-2.118 0-3.541-.215-3.541-.534 0-.294-.288-.497-.64-.452-1.714.223-5.023-.086-4.799-.448.139-.225-.596-.465-1.634-.534-1.038-.069-1.964-.345-2.058-.614-.094-.27-1.073-.49-2.176-.49-1.103 0-2.005-.23-2.005-.512 0-.282-.922-.512-2.048-.512s-2.048-.23-2.048-.512c0-.282-.691-.512-1.536-.512-.845 0-1.536-.23-1.536-.512 0-.282-.691-.512-1.536-.512-.845 0-1.536-.255-1.536-.567 0-.312-.317-.445-.704-.296-.388.148-1.336-.057-2.107-.458-.771-.4-1.724-.727-2.118-.727-.395 0-1.117-.205-1.606-.456-.489-.251-1.983-.978-3.321-1.616-1.338-.639-2.432-1.355-2.432-1.592 0-.238-.76-.432-1.69-.432-.929 0-1.908-.209-2.176-.464-.808-.771-4.314-2.608-4.982-2.61-.343-.002-1.374-.706-2.291-1.565-.916-.859-1.897-1.419-2.179-1.245-.282.174-.651-.043-.82-.484-.169-.44-.527-.8-.795-.8s-.317.276-.109.613c.208.337-.412.057-1.378-.622s-1.833-1.415-1.927-1.637c-.094-.221-.51-.402-.926-.402-.441 0-.603-.246-.39-.591.216-.35.141-.453-.183-.253-.301.187-1.305-.296-2.232-1.073-.926-.776-1.504-1.065-1.284-.643.22.422-.058.25-.617-.384-.559-.634-1.299-1.152-1.643-1.152-.344 0-1.001-.403-1.459-.896-.761-.818-1.311-1.181-4.388-2.896-.552-.308-1.859-1.424-2.904-2.48-1.903-1.925-2.855-2.478-2.203-1.28.192.352-.574-.339-1.702-1.536-1.129-1.197-2.344-2.176-2.702-2.176-.358 0-1.527-.922-2.599-2.048-1.071-1.126-2.21-2.048-2.531-2.048-.321 0-1.712-1.152-3.09-2.56-1.379-1.408-2.718-2.56-2.975-2.56-.258 0-1.784-1.264-3.392-2.809-1.608-1.544-3.162-2.661-3.453-2.48-.292.18-.381.085-.198-.21.273-.442-.651-1.157-1.496-1.157-.118 0-.214 103.91-.214 230.912V512h512l-.015-231.04-.015-231.04-1.514-1.664c-.832-.915-1.761-1.664-2.063-1.664-.302 0-.385-.266-.184-.591.212-.343.142-.453-.168-.262-.293.181-1.41-.474-2.483-1.457-1.073-.982-2.149-1.786-2.392-1.786-.243 0-.278-.266-.077-.591.236-.381.139-.452-.271-.198-.402.248-1.282-.29-2.382-1.457-.96-1.017-2.092-1.85-2.515-1.85-.423 0-.769-.204-.769-.452 0-.249-.461-.573-1.024-.72-.563-.148-1.024-.635-1.024-1.084 0-.449-.349-.816-.775-.816-1.091 0-2.825-1.041-4.477-2.688-.777-.774-1.595-1.408-1.818-1.408-.74 0-3.162-1.273-3.166-1.664-.002-.211-.363-.384-.802-.384-.439 0-.653-.236-.474-.525.178-.288.134-.467-.098-.397-.601.181-3.75-1.299-3.75-1.763 0-.213-.376-.387-.836-.387-.46 0-1.254-.482-1.765-1.071-.511-.589-1.173-.92-1.471-.736-.299.185-.681-.024-.85-.465-.169-.44-.571-.798-.893-.796-.771.006-9.239-4.234-9.46-4.735-.094-.214-.612-.389-1.152-.389-.539 0-.981-.23-.981-.512 0-.282-.461-.512-1.024-.512s-1.024-.23-1.024-.512c0-.282-.53-.512-1.178-.512-1.349 0-3.932-1.092-3.938-1.664-.002-.211-.682-.384-1.51-.384s-1.648-.23-1.822-.512c-.174-.282-.718-.512-1.208-.512-1.12 0-3.647-1.151-3.652-1.664-.002-.211-.695-.384-1.54-.384-.845 0-1.536-.23-1.536-.512 0-.282-.691-.512-1.536-.512-.845 0-1.536-.23-1.536-.512 0-.282-.691-.512-1.536-.512-.845 0-1.536-.23-1.536-.512 0-.282-.922-.512-2.048-.512s-2.048-.23-2.048-.512c0-.282-.678-.512-1.506-.512s-1.631-.203-1.785-.452c-.153-.248-1.257-.465-2.452-.481-1.195-.017-2.254-.274-2.354-.573-.099-.298-1.069-.542-2.155-.542-1.087 0-2.084-.175-2.216-.389-.132-.214-1.698-.462-3.479-.55-1.782-.088-3.357-.338-3.502-.555-.145-.217-1.761-.443-3.591-.503-1.83-.059-3.405-.326-3.499-.592-.094-.265-2.455-.483-5.248-.483-2.792 0-5.077-.188-5.077-.418 0-.531-20.401-.576-20.593-.045" fill="#2474b4"/><path d="M390.784.865c.493.129 1.299.129 1.792 0 .493-.129.09-.234-.896-.234s-1.389.105-.896.234" fill="#2874b4"/><path d="M390.784.865c.493.129 1.299.129 1.792 0 .493-.129.09-.234-.896-.234s-1.389.105-.896.234" fill="#2874b4"/><path d="M390.784.865c.493.129 1.299.129 1.792 0 .493-.129.09-.234-.896-.234s-1.389.105-.896.234" fill="#2874b4"/><path d="M390.784.865c.493.129 1.299.129 1.792 0 .493-.129.09-.234-.896-.234s-1.389.105-.896.234" fill="#2874b4"/></g></svg>